<svg xmlns="http://www.w3.org/2000/svg" version="1.1" xmlns:xlink="http://www.w3.org/1999/xlink" width="218" height="218"><svg xmlns="http://www.w3.org/2000/svg" version="1.1" xmlns:xlink="http://www.w3.org/1999/xlink" width="218" height="218"><svg width="218" height="218" viewBox="0 0 218 218" fill="none" xmlns="http://www.w3.org/2000/svg">
<g clip-path="url(#clip0_2036_16)">
<circle cx="109" cy="109" r="107" stroke="#8A44D6" stroke-width="4"></circle>
<path d="M72 88.5L110 126.5L148 88.5" stroke="#8A44D6" stroke-width="100" stroke-linecap="round"></path>
<path d="M99.88 161.536C98.7707 161.536 97.9173 161.067 97.32 160.128C96.7227 159.275 96.296 158.165 96.04 156.8C95.784 155.435 95.656 153.984 95.656 152.448C95.656 150.741 95.784 148.565 96.04 145.92C96.296 143.189 96.5947 139.947 96.936 136.192L103.72 72.96H122.792C128.851 72.96 133.544 72.8747 136.872 72.704C140.2 72.448 142.675 72.2347 144.296 72.064C145.917 71.808 147.155 71.68 148.008 71.68C148.947 71.68 149.587 71.8507 149.928 72.192C150.355 72.448 150.568 73.216 150.568 74.496C150.568 76.032 150.269 77.696 149.672 79.488C149.075 81.28 148.264 82.816 147.24 84.096C146.301 85.376 145.192 86.016 143.912 86.016C143.4 86.016 142.717 86.016 141.864 86.016C141.096 85.9307 140.157 85.8453 139.048 85.76C138.024 85.5893 136.915 85.4187 135.72 85.248L117.672 82.56L110.12 161.536H99.88ZM106.792 122.24L108.456 112.384H114.6C118.269 112.384 121.811 112.256 125.224 112C128.723 111.744 131.667 111.488 134.056 111.232C136.531 110.976 138.067 110.848 138.664 110.848C139.347 110.848 139.859 111.061 140.2 111.488C140.541 111.829 140.712 112.341 140.712 113.024C140.712 114.304 139.816 115.627 138.024 116.992C136.317 118.357 134.099 119.509 131.368 120.448C128.723 121.387 125.992 121.899 123.176 121.984L106.792 122.24Z" fill="#7119D1"></path>
<path d="M95.88 159.536C94.7707 159.536 93.9173 159.067 93.32 158.128C92.7227 157.275 92.296 156.165 92.04 154.8C91.784 153.435 91.656 151.984 91.656 150.448C91.656 148.741 91.784 146.565 92.04 143.92C92.296 141.189 92.5947 137.947 92.936 134.192L99.72 70.96H118.792C124.851 70.96 129.544 70.8747 132.872 70.704C136.2 70.448 138.675 70.2347 140.296 70.064C141.917 69.808 143.155 69.68 144.008 69.68C144.947 69.68 145.587 69.8507 145.928 70.192C146.355 70.448 146.568 71.216 146.568 72.496C146.568 74.032 146.269 75.696 145.672 77.488C145.075 79.28 144.264 80.816 143.24 82.096C142.301 83.376 141.192 84.016 139.912 84.016C139.4 84.016 138.717 84.016 137.864 84.016C137.096 83.9307 136.157 83.8453 135.048 83.76C134.024 83.5893 132.915 83.4187 131.72 83.248L113.672 80.56L106.12 159.536H95.88ZM102.792 120.24L104.456 110.384H110.6C114.269 110.384 117.811 110.256 121.224 110C124.723 109.744 127.667 109.488 130.056 109.232C132.531 108.976 134.067 108.848 134.664 108.848C135.347 108.848 135.859 109.061 136.2 109.488C136.541 109.829 136.712 110.341 136.712 111.024C136.712 112.304 135.816 113.627 134.024 114.992C132.317 116.357 130.099 117.509 127.368 118.448C124.723 119.387 121.992 119.899 119.176 119.984L102.792 120.24Z" fill="white"></path>
</g>
<defs>
<clipPath id="clip0_2036_16">
<rect width="218" height="218" fill="white"></rect>
</clipPath>
</defs>
</svg></svg><style>@media (prefers-color-scheme: light) { :root { filter: none; } }
@media (prefers-color-scheme: dark) { :root { filter: none; } }
</style></svg>